<svg xmlns="http://www.w3.org/2000/svg" version="1.1" xmlns:xlink="http://www.w3.org/1999/xlink" xmlns:svgjs="http://svgjs.com/svgjs" height="134.91000366210938" width="256.5400085449219"><defs id="SvgjsDefs1334"></defs><g id="SvgjsG1335" rel="mainfill" name="main_text" xmlns:name="main_text" transform="translate(-2.1600000858306885,-127.72000122070312)" fill="#ffffff"><path d="M2.16 209.72L6.49 209.72L6.49 240L2.16 240L2.16 209.72ZM25.96 214.04L25.96 240L21.63 240L21.63 214.04L8.65 214.04L8.65 209.72L38.94 209.72L38.94 214.04L25.96 214.04ZM39.80 222.70L59.27 222.70L59.27 227.02L39.80 227.02L39.80 222.70ZM77.44 214.04L77.44 240L73.11 240L73.11 214.04L60.13 214.04L60.13 209.72L90.42 209.72L90.42 214.04L77.44 214.04ZM118.54 218.37Q118.54 216.55 117.28 215.30Q116.03 214.04 114.21 214.04L96.91 214.04L96.91 227.02L114.21 227.02Q116.03 227.02 117.28 225.77Q118.54 224.51 118.54 222.70L118.54 218.37M122.86 222.70Q122.86 224.43 122.19 225.98Q121.52 227.54 120.35 228.73Q119.18 229.92 117.61 230.63Q116.03 231.35 114.21 231.35L96.91 231.35L96.91 240L92.58 240L92.58 209.72L114.21 209.72Q115.94 209.72 117.50 210.39Q119.05 211.06 120.22 212.23Q121.39 213.39 122.10 214.97Q122.82 216.55 122.86 218.37L122.86 222.70ZM130.65 222.70L152.28 222.70L152.28 227.02L130.65 227.02L130.65 235.67L156.61 235.67L156.61 240L126.32 240L126.32 209.72L156.61 209.72L156.61 214.04L130.65 214.04L130.65 222.70ZM164.39 222.70L186.02 222.70L186.02 209.72L190.35 209.72L190.35 240L186.02 240L186.02 227.02L164.39 227.02L164.39 240L160.07 240L160.07 209.72L164.39 209.72L164.39 222.70ZM199.00 222.70L220.63 222.70L220.63 227.02L199.00 227.02L199.00 235.67L224.96 235.67L224.96 240L194.68 240L194.68 209.72L224.96 209.72L224.96 214.04L199.00 214.04L199.00 222.70ZM254.38 218.37Q254.38 216.55 253.12 215.30Q251.87 214.04 250.05 214.04L232.75 214.04L232.75 227.02L250.05 227.02Q251.87 227.02 253.12 225.77Q254.38 224.51 254.38 222.70L254.38 218.37M258.70 222.70Q258.70 224.43 258.03 225.98Q257.36 227.54 256.19 228.73Q255.02 229.92 253.45 230.63Q251.87 231.35 250.05 231.35L232.75 231.35L232.75 240L228.42 240L228.42 209.72L250.05 209.72Q251.78 209.72 253.34 210.39Q254.90 211.06 256.06 212.23Q257.23 213.39 257.95 214.97Q258.66 216.55 258.70 218.37L258.70 222.70Z" fill="#ffffff" style="fill: rgb(255, 255, 255);"></path></g><g id="SvgjsG1336" rel="mainfill" name="slogan_text" xmlns:name="slogan_text" transform="translate(73.36330932378769,-105.33999633789062)" fill="#ffffff"><path d="M2.69 235.96L4.11 235.96C5.51 235.96 6.11 236.24 6.11 237.11C6.11 238.02 5.69 238.33 3.94 238.33C2.87 238.33 1.76 238.15 1.04 237.89L0.56 239.91C1.53 240.13 2.67 240.25 3.98 240.25C7.20 240.25 8.51 239.65 8.51 237.55C8.51 236.15 7.92 235.20 6.05 235.11C7.83 234.97 8.27 234.13 8.27 232.86C8.27 231.11 7.23 230.48 3.98 230.48C2.67 230.48 1.58 230.62 0.64 230.84L1.11 232.80C1.85 232.57 2.80 232.40 3.94 232.40C5.51 232.40 5.91 232.66 5.91 233.35C5.91 234.07 5.43 234.27 4.11 234.27L2.69 234.27ZM18.36 234.07C18.36 231.31 17.10 230.48 14.36 230.48C13.03 230.48 11.63 230.71 10.67 230.97L11.09 232.82C11.85 232.55 12.87 232.40 13.89 232.40C15.81 232.40 16.19 232.77 16.19 234.38C15.41 234.22 14.69 234.13 13.90 234.13C11.74 234.13 10.27 234.55 10.27 237.16C10.27 239.58 11.25 240.25 14.18 240.25C15.47 240.25 17.19 239.98 18.36 239.53ZM16.19 238.22C15.67 238.40 15.00 238.53 14.34 238.53C12.98 238.53 12.63 238.33 12.63 237.07C12.63 235.89 13.09 235.75 14.36 235.75C15.03 235.75 15.69 235.80 16.19 235.91ZM23.07 232.71L26.70 232.71L26.70 240L28.95 240L28.95 230.75L20.81 230.75L20.81 240L23.07 240ZM35.55 240.25C38.53 240.25 39.99 239.13 39.99 235.33C39.99 231.55 38.51 230.48 35.55 230.48C32.63 230.48 31.15 231.55 31.15 235.33C31.15 239.13 32.61 240.25 35.55 240.25ZM35.55 232.31C37.17 232.31 37.66 232.71 37.66 235.37C37.66 237.93 37.17 238.42 35.55 238.42C33.97 238.42 33.48 237.93 33.48 235.37C33.48 232.71 33.97 232.31 35.55 232.31ZM47.86 236.26C47.08 234.33 46.31 232.53 45.46 230.75L42.17 230.75L42.17 240L44.40 240L44.40 233.26C45.22 235.04 46.20 237.64 46.88 239.45L48.57 239.45C49.24 237.64 50.26 235.09 51.11 233.26L51.11 240L53.35 240L53.35 230.75L50.20 230.75C49.37 232.51 48.60 234.29 47.86 236.26ZM61.74 236.07L61.74 240L64.00 240L64.00 230.75L61.74 230.75L61.74 234.15L58.11 234.15L58.11 230.75L55.85 230.75L55.85 240L58.11 240L58.11 236.07ZM72.54 240L74.79 240L74.79 230.75L72.54 230.75C71.43 232.73 70.03 235.06 68.78 236.64L68.78 230.75L66.52 230.75L66.52 240L68.78 240C70.07 238.33 71.43 236.35 72.54 234.35ZM84.39 238.26L84.39 236.00L87.10 236.00C87.81 236.00 88.15 236.36 88.15 237.20C88.15 237.96 87.86 238.26 87.15 238.26ZM84.39 232.49L87.06 232.49C87.72 232.49 87.95 232.69 87.95 233.40C87.95 234.04 87.72 234.35 87.06 234.35L84.39 234.35ZM88.19 235.09C89.95 234.97 90.30 234.18 90.30 232.97C90.30 231.60 89.81 230.75 87.72 230.75L82.14 230.75L82.14 240L87.79 240C89.48 240 90.52 239.29 90.52 237.47C90.52 236.09 90.04 235.15 88.19 235.09ZM99.24 237.86C98.66 238.09 97.88 238.29 97.10 238.29C95.46 238.29 94.68 237.82 94.68 235.37C94.68 232.80 95.46 232.44 97.10 232.44C97.84 232.44 98.66 232.62 99.24 232.84L99.75 230.91C99.06 230.66 97.82 230.48 96.93 230.48C94.13 230.48 92.35 231.55 92.35 235.33C92.35 239.13 94.11 240.25 96.93 240.25C97.80 240.25 99.02 240.07 99.75 239.78ZM108.26 237.96C107.53 238.18 106.31 238.35 105.66 238.35C104.04 238.35 103.27 237.95 103.26 235.96L109.24 235.96C109.40 231.48 108.13 230.48 105.20 230.48C102.51 230.48 100.89 231.62 100.89 235.33C100.89 239.13 102.71 240.25 105.38 240.25C106.33 240.25 107.69 240.05 108.62 239.75ZM105.33 232.26C106.62 232.26 107.09 232.60 107.16 234.24L103.27 234.24C103.42 232.71 103.91 232.26 105.33 232.26ZM103.27 227.62C102.46 227.62 102.20 227.75 102.20 228.62C102.20 229.59 102.46 229.75 103.27 229.75C104.09 229.75 104.37 229.59 104.37 228.62C104.37 227.75 104.09 227.62 103.27 227.62ZM107.16 227.62C106.33 227.62 106.07 227.75 106.07 228.62C106.07 229.59 106.33 229.75 107.16 229.75C107.96 229.75 108.24 229.59 108.24 228.62C108.24 227.75 107.96 227.62 107.16 227.62Z" fill="#ffffff" style="fill: rgb(255, 255, 255);"></path></g><g id="SvgjsG1337" rel="mainfill" name="symbol" xmlns:name="symbol_mainfill" transform="translate(87.41634573587557,-7.353658536585366) scale(0.8170731707317073)" fill="#ffffff"><path d="M39.091,31.615c-0.391-0.391-1.023-0.391-1.414,0L19.999,49.293c-0.391,0.391-0.391,1.023,0,1.414l17.678,17.678  c0.195,0.195,0.451,0.293,0.707,0.293s0.512-0.098,0.707-0.293c0.391-0.391,0.391-1.023,0-1.414L22.12,50l16.971-16.971  C39.481,32.639,39.481,32.006,39.091,31.615z" fill="#ffffff" style="fill: rgb(255, 255, 255);"></path><path d="M62.323,31.615c-0.391-0.391-1.023-0.391-1.414,0s-0.391,1.023,0,1.414L77.88,50L60.909,66.971  c-0.391,0.391-0.391,1.023,0,1.414c0.195,0.195,0.451,0.293,0.707,0.293s0.512-0.098,0.707-0.293l17.678-17.678  c0.391-0.391,0.391-1.023,0-1.414L62.323,31.615z" fill="#ffffff" style="fill: rgb(255, 255, 255);"></path><path d="M57.291,26.043c-0.529-0.162-1.086,0.138-1.248,0.666l-14,46c-0.16,0.528,0.138,1.087,0.666,1.248  C42.806,73.986,42.904,74,43,74c0.429,0,0.825-0.278,0.957-0.709l14-46C58.117,26.763,57.819,26.204,57.291,26.043z" fill="#ffffff" style="fill: rgb(255, 255, 255);"></path><path d="M82,9H18c-4.963,0-9,4.038-9,9v64c0,4.962,4.037,9,9,9h64c4.963,0,9-4.038,9-9V18C91,13.038,86.963,9,82,9z M89,82  c0,3.86-3.141,7-7,7H18c-3.859,0-7-3.14-7-7V18c0-3.86,3.141-7,7-7h64c3.859,0,7,3.14,7,7V82z" fill="#ffffff" style="fill: rgb(255, 255, 255);"></path></g></svg>